<?xml version="1.0" encoding="utf-8"?>
<!-- Generator: Adobe Illustrator 22.1.0, SVG Export Plug-In . SVG Version: 6.00 Build 0)  -->
<svg version="1.1" id="Layer_1" xmlns="http://www.w3.org/2000/svg" xmlns:xlink="http://www.w3.org/1999/xlink" x="0px" y="0px"
	 viewBox="0 0 43 43" style="enable-background:new 0 0 43 43;" xml:space="preserve">
<style type="text/css">
	.st0{clip-path:url(#SVGID_2_);fill:#FFFFFF;}
	.st1{fill:none;stroke:#591B01;stroke-linecap:round;stroke-linejoin:round;stroke-miterlimit:10;}
	.st2{clip-path:url(#SVGID_4_);fill:#FFFFFF;}
	.st3{fill:none;stroke:#591B01;stroke-linejoin:round;stroke-miterlimit:10;}
	.st4{clip-path:url(#SVGID_6_);fill:#FFFFFF;}
	.st5{clip-path:url(#SVGID_8_);fill:#FFFFFF;}
</style>
<g>
	<defs>
		<polygon id="SVGID_1_" points="35.3,13.7 42,24.3 28.5,24.3 		"/>
	</defs>
	<clipPath id="SVGID_2_">
		<use xlink:href="#SVGID_1_"  style="overflow:visible;"/>
	</clipPath>
	<rect x="27" y="12.1" class="st0" width="16.6" height="13.8"/>
</g>
<polygon class="st1" points="35.3,13.7 42,24.3 28.5,24.3 "/>
<g>
	<defs>
		<polygon id="SVGID_3_" points="26.5,13.7 33.2,24.3 19.8,24.3 		"/>
	</defs>
	<clipPath id="SVGID_4_">
		<use xlink:href="#SVGID_3_"  style="overflow:visible;"/>
	</clipPath>
	<rect x="18.2" y="12.1" class="st2" width="16.6" height="13.8"/>
</g>
<polygon class="st3" points="26.5,13.7 33.2,24.3 19.8,24.3 "/>
<g>
	<defs>
		<polygon id="SVGID_5_" points="16.8,13.7 23.5,24.3 10.1,24.3 		"/>
	</defs>
	<clipPath id="SVGID_6_">
		<use xlink:href="#SVGID_5_"  style="overflow:visible;"/>
	</clipPath>
	<rect x="8.5" y="12.1" class="st4" width="16.6" height="13.8"/>
</g>
<polygon class="st3" points="16.8,13.7 23.5,24.3 10.1,24.3 "/>
<g>
	<defs>
		<polygon id="SVGID_7_" points="7.7,13.7 14.5,24.3 1,24.3 		"/>
	</defs>
	<clipPath id="SVGID_8_">
		<use xlink:href="#SVGID_7_"  style="overflow:visible;"/>
	</clipPath>
	<rect x="-0.6" y="12.1" class="st5" width="16.6" height="13.8"/>
</g>
<polygon class="st1" points="7.7,13.7 14.5,24.3 1,24.3 "/>
</svg>
