<?xml version="1.0" encoding="utf-8"?>
<!-- Generator: Adobe Illustrator 22.1.0, SVG Export Plug-In . SVG Version: 6.00 Build 0)  -->
<svg version="1.1" id="Layer_1" xmlns="http://www.w3.org/2000/svg" xmlns:xlink="http://www.w3.org/1999/xlink" x="0px" y="0px"
	 viewBox="0 0 41 41" style="enable-background:new 0 0 41 41;" xml:space="preserve">
<style type="text/css">
	.st0{clip-path:url(#SVGID_2_);}
	.st1{clip-path:url(#SVGID_4_);fill:#FFFFFF;}
	.st2{clip-path:url(#SVGID_6_);fill:none;stroke:#591B01;stroke-width:4;stroke-miterlimit:10;}
	.st3{clip-path:url(#SVGID_8_);}
	.st4{clip-path:url(#SVGID_10_);fill:#FFFFFF;}
	.st5{clip-path:url(#SVGID_12_);fill:none;stroke:#591B01;stroke-width:4;stroke-miterlimit:10;}
	.st6{clip-path:url(#SVGID_14_);}
	.st7{clip-path:url(#SVGID_16_);fill:#FFFFFF;}
	.st8{clip-path:url(#SVGID_18_);fill:none;stroke:#591B01;stroke-width:4;stroke-miterlimit:10;}
	.st9{clip-path:url(#SVGID_20_);}
	.st10{clip-path:url(#SVGID_22_);fill:#FFFFFF;}
	.st11{clip-path:url(#SVGID_24_);fill:none;stroke:#591B01;stroke-width:4;stroke-miterlimit:10;}
	.st12{clip-path:url(#SVGID_26_);fill:#591B01;}
	.st13{clip-path:url(#SVGID_28_);fill:#591B01;}
</style>
<g>
	<g>
		<defs>
			<path id="SVGID_1_" d="M18,3c-2.8,0-5,2.2-5,5s2.2,5,5,5h5c2.8,0,5-2.2,5-5s-2.2-5-5-5H18z M18,5h5c1.7,0,3,1.3,3,3s-1.3,3-3,3
				h-5c-1.7,0-3-1.3-3-3S16.3,5,18,5z M-7-17h55v50H-7V-17z"/>
		</defs>
		<clipPath id="SVGID_2_">
			<use xlink:href="#SVGID_1_"  style="overflow:visible;"/>
		</clipPath>
		<g class="st0">
			<defs>
				<path id="SVGID_3_" d="M18,4h5c2.2,0,4,1.8,4,4s-1.8,4-4,4h-5c-2.2,0-4-1.8-4-4S15.8,4,18,4z"/>
			</defs>
			<clipPath id="SVGID_4_">
				<use xlink:href="#SVGID_3_"  style="overflow:visible;"/>
			</clipPath>
			<path class="st1" d="M18,4h5c2.2,0,4,1.8,4,4s-1.8,4-4,4h-5c-2.2,0-4-1.8-4-4S15.8,4,18,4z"/>
		</g>
	</g>
	<g>
		<defs>
			<path id="SVGID_5_" d="M18,4h5c2.2,0,4,1.8,4,4s-1.8,4-4,4h-5c-2.2,0-4-1.8-4-4S15.8,4,18,4z"/>
		</defs>
		<clipPath id="SVGID_6_">
			<use xlink:href="#SVGID_5_"  style="overflow:visible;"/>
		</clipPath>
		<path class="st2" d="M18,4h5c2.2,0,4,1.8,4,4s-1.8,4-4,4h-5c-2.2,0-4-1.8-4-4S15.8,4,18,4z"/>
	</g>
	<g>
		<defs>
			<path id="SVGID_7_" d="M13,7c-5,0-9,4-9,9v13c0,5,4,9,9,9h14c5,0,9-4,9-9V16c0-5-4-9-9-9H13z M13,9h14c3.9,0,7,3.1,7,7v13
				c0,3.9-3.1,7-7,7H13c-3.9,0-7-3.1-7-7V16C6,12.1,9.1,9,13,9z M-16-13h72v71h-72V-13z"/>
		</defs>
		<clipPath id="SVGID_8_">
			<use xlink:href="#SVGID_7_"  style="overflow:visible;"/>
		</clipPath>
		<g class="st3">
			<defs>
				<path id="SVGID_9_" d="M13,8h14c4.4,0,8,3.6,8,8v13c0,4.4-3.6,8-8,8H13c-4.4,0-8-3.6-8-8V16C5,11.6,8.6,8,13,8z"/>
			</defs>
			<clipPath id="SVGID_10_">
				<use xlink:href="#SVGID_9_"  style="overflow:visible;"/>
			</clipPath>
			<path class="st4" d="M13,8h14c4.4,0,8,3.6,8,8v13c0,4.4-3.6,8-8,8H13c-4.4,0-8-3.6-8-8V16C5,11.6,8.6,8,13,8z"/>
		</g>
	</g>
	<g>
		<defs>
			<path id="SVGID_11_" d="M13,8h14c4.4,0,8,3.6,8,8v13c0,4.4-3.6,8-8,8H13c-4.4,0-8-3.6-8-8V16C5,11.6,8.6,8,13,8z"/>
		</defs>
		<clipPath id="SVGID_12_">
			<use xlink:href="#SVGID_11_"  style="overflow:visible;"/>
		</clipPath>
		<path class="st5" d="M13,8h14c4.4,0,8,3.6,8,8v13c0,4.4-3.6,8-8,8H13c-4.4,0-8-3.6-8-8V16C5,11.6,8.6,8,13,8z"/>
	</g>
	<g>
		<defs>
			<path id="SVGID_13_" d="M10,7c-3.3,0-6,2.7-6,6s2.7,6,6,6h20c3.3,0,6-2.7,6-6s-2.7-6-6-6H10z M10,9h20c2.2,0,4,1.8,4,4
				s-1.8,4-4,4H10c-2.2,0-4-1.8-4-4S7.8,9,10,9z M-16-13h72v52h-72V-13z"/>
		</defs>
		<clipPath id="SVGID_14_">
			<use xlink:href="#SVGID_13_"  style="overflow:visible;"/>
		</clipPath>
		<g class="st6">
			<defs>
				<path id="SVGID_15_" d="M10,8h20c2.8,0,5,2.2,5,5s-2.2,5-5,5H10c-2.8,0-5-2.2-5-5S7.2,8,10,8z"/>
			</defs>
			<clipPath id="SVGID_16_">
				<use xlink:href="#SVGID_15_"  style="overflow:visible;"/>
			</clipPath>
			<path class="st7" d="M10,8h20c2.8,0,5,2.2,5,5s-2.2,5-5,5H10c-2.8,0-5-2.2-5-5S7.2,8,10,8z"/>
		</g>
	</g>
	<g>
		<defs>
			<path id="SVGID_17_" d="M10,8h20c2.8,0,5,2.2,5,5s-2.2,5-5,5H10c-2.8,0-5-2.2-5-5S7.2,8,10,8z"/>
		</defs>
		<clipPath id="SVGID_18_">
			<use xlink:href="#SVGID_17_"  style="overflow:visible;"/>
		</clipPath>
		<path class="st8" d="M10,8h20c2.8,0,5,2.2,5,5s-2.2,5-5,5H10c-2.8,0-5-2.2-5-5S7.2,8,10,8z"/>
	</g>
	<g>
		<defs>
			<path id="SVGID_19_" d="M16,22c-3.3,0-6,2.7-6,6s2.7,6,6,6h9c3.3,0,6-2.7,6-6s-2.7-6-6-6H16z M16,24h9c2.2,0,4,1.8,4,4
				s-1.8,4-4,4h-9c-2.2,0-4-1.8-4-4S13.8,24,16,24z M-10,2h61v52h-61V2z"/>
		</defs>
		<clipPath id="SVGID_20_">
			<use xlink:href="#SVGID_19_"  style="overflow:visible;"/>
		</clipPath>
		<g class="st9">
			<defs>
				<path id="SVGID_21_" d="M16,23h9c2.8,0,5,2.2,5,5c0,2.8-2.2,5-5,5h-9c-2.8,0-5-2.2-5-5C11,25.2,13.2,23,16,23z"/>
			</defs>
			<clipPath id="SVGID_22_">
				<use xlink:href="#SVGID_21_"  style="overflow:visible;"/>
			</clipPath>
			<path class="st10" d="M16,23h9c2.8,0,5,2.2,5,5c0,2.8-2.2,5-5,5h-9c-2.8,0-5-2.2-5-5C11,25.2,13.2,23,16,23z"/>
		</g>
	</g>
	<g>
		<defs>
			<path id="SVGID_23_" d="M16,23h9c2.8,0,5,2.2,5,5c0,2.8-2.2,5-5,5h-9c-2.8,0-5-2.2-5-5C11,25.2,13.2,23,16,23z"/>
		</defs>
		<clipPath id="SVGID_24_">
			<use xlink:href="#SVGID_23_"  style="overflow:visible;"/>
		</clipPath>
		<path class="st11" d="M16,23h9c2.8,0,5,2.2,5,5s-2.2,5-5,5h-9c-2.8,0-5-2.2-5-5S13.2,23,16,23z"/>
	</g>
	<g>
		<defs>
			<path id="SVGID_25_" d="M15,13L15,13c0.6,0,1,0.4,1,1v6c0,0.6-0.4,1-1,1c-0.6,0-1-0.4-1-1v-6C14,13.4,14.4,13,15,13z"/>
		</defs>
		<clipPath id="SVGID_26_">
			<use xlink:href="#SVGID_25_"  style="overflow:visible;"/>
		</clipPath>
		<rect x="9" y="8" class="st12" width="12" height="18"/>
	</g>
	<g>
		<defs>
			<path id="SVGID_27_" d="M24,13L24,13c0.6,0,1,0.4,1,1v6c0,0.6-0.4,1-1,1s-1-0.4-1-1v-6C23,13.4,23.4,13,24,13z"/>
		</defs>
		<clipPath id="SVGID_28_">
			<use xlink:href="#SVGID_27_"  style="overflow:visible;"/>
		</clipPath>
		<rect x="18" y="8" class="st13" width="12" height="18"/>
	</g>
</g>
</svg>
