<?xml version="1.0" encoding="utf-8"?>
<!-- Generator: Adobe Illustrator 22.1.0, SVG Export Plug-In . SVG Version: 6.00 Build 0)  -->
<svg version="1.1" id="Layer_1" xmlns="http://www.w3.org/2000/svg" xmlns:xlink="http://www.w3.org/1999/xlink" x="0px" y="0px"
	 viewBox="0 0 41 41" style="enable-background:new 0 0 41 41;" xml:space="preserve">
<style type="text/css">
	.st0{clip-path:url(#SVGID_2_);fill:#FFFFFF;}
	.st1{fill:none;stroke:#591B01;stroke-width:2;stroke-miterlimit:10;}
	.st2{clip-path:url(#SVGID_4_);fill:#FFFFFF;}
</style>
<g>
	<defs>
		<path id="SVGID_1_" d="M11.9,20.4c-1.2-1.7-1.9-3.7-1.9-5.9C10,8.7,14.9,4,21,4s11,4.7,11,10.5c0,2.5-0.9,4.8-2.4,6.6L20.5,34
			L11.9,20.4z"/>
	</defs>
	<clipPath id="SVGID_2_">
		<use xlink:href="#SVGID_1_"  style="overflow:visible;"/>
	</clipPath>
	<rect x="5" y="-1" class="st0" width="32" height="40"/>
</g>
<path class="st1" d="M11.9,20.4c-1.2-1.7-1.9-3.7-1.9-5.9C10,8.7,14.9,4,21,4s11,4.7,11,10.5c0,2.5-0.9,4.8-2.4,6.6L20.5,34
	L11.9,20.4z"/>
<g>
	<defs>
		<ellipse id="SVGID_3_" cx="21.5" cy="15" rx="5.5" ry="5"/>
	</defs>
	<clipPath id="SVGID_4_">
		<use xlink:href="#SVGID_3_"  style="overflow:visible;"/>
	</clipPath>
	<rect x="11" y="5" class="st2" width="21" height="20"/>
</g>
<ellipse class="st1" cx="21.5" cy="15" rx="5.5" ry="5"/>
</svg>
